# xmcd
#
# Track frame offsets:
#	187
#	22015
#	52592
#	79252
#	100690
#	125177
#	154662
#	165705
#	193820
#	215525
#	236897
#	260375
#	283302
#
# Disc length: 4137 seconds
#
# Revision: 1
# Processed by: cddbd v1.5.1PL2 Copyright (c) Steve Scherf et al.
# Submitted via: audiograbber 1.83.01
#
DISCID=ba10270d
DTITLE=Jimmy Ballero - ...and the Renegade Band
DYEAR=1992
DGENRE=Blues
TTITLE0=I'm Gone
TTITLE1=Summertime
TTITLE2=House of the Rising Sun
TTITLE3=Got me Runnin'
TTITLE4=I Got a Woman
TTITLE5=Stagger Lee
TTITLE6=Let The Good Times Roll
TTITLE7=Jambalaya
TTITLE8=Stormy Monday
TTITLE9=Let the Good Times Roll (Earl King)
TTITLE10=What a wonderful world
TTITLE11=Fever
TTITLE12=Honest I Do
EXTD=
EXTT0=
EXTT1=
EXTT2=
EXTT3=
EXTT4=
EXTT5=
EXTT6=
EXTT7=
EXTT8=
EXTT9=
EXTT10=
EXTT11=
EXTT12=
PLAYORDER=
